# Blender v2.75 (sub 0) OBJ File: 'HQfireplace.blend'
# www.blender.org
mtllib HQfireplace.mtl
o Plane_Plane.001
v -3.864716 4.356774 -0.267044
v -5.051135 2.270135 -0.476241
v -3.446320 4.356774 -2.639883
v -4.632739 2.270135 -2.849080
vn 0.852900 -0.500000 0.150400
usemtl Material.004
s off
f 1//1 2//1 4//1 3//1
o Assem1_-_wooden_case_part-1
v -1.606142 1.675701 -0.642327
v -1.606142 1.675701 0.336452
v -1.606142 -0.109711 -0.642327
v -1.606142 -0.109711 0.336452
v -1.606142 -0.169996 -0.642327
v -1.606142 -0.169996 0.336452
v 1.784398 -0.169996 -0.642327
v 1.784398 -0.169996 0.336452
v 1.784398 -0.109711 -0.642327
v 1.784398 -0.109711 0.336452
v 1.784398 1.675701 -0.642327
v 1.784398 1.675701 0.336452
v 3.084179 -0.109712 -1.039310
v 3.084179 -0.109711 0.733436
v 3.084179 -0.712555 -1.039310
v 3.084179 -0.712555 0.733436
v -2.905922 -0.109712 -1.039310
v -2.905922 -0.712555 -1.039310
v -2.905922 -0.109711 0.733436
v -2.905922 -0.712555 0.733436
v 2.085069 -0.109711 -0.642327
v -1.906813 -0.109711 0.336452
v 2.085069 -0.109711 0.336452
v -1.906813 -0.109711 -0.642327
v -1.906813 1.939956 0.336452
v -1.906813 1.939956 -0.642327
v 2.085069 1.939956 0.336452
v 2.085069 1.939956 -0.642327
vt 0.331770 0.974630
vt 0.221180 0.974630
vt 0.331770 0.752557
vt 0.221180 0.752557
vt 0.331770 0.745059
vt 0.221180 0.745059
vt 0.110590 0.974630
vt 0.221180 0.967131
vt 0.110590 0.967131
vt 0.110590 0.745059
vt 0.849769 0.918238
vt 0.842958 0.918238
vt 0.849769 0.496517
vt 0.842958 0.496517
vt 0.856581 0.918238
vt 0.856581 0.496517
vt 0.621778 0.918238
vt 0.621778 0.496517
vt 0.732368 0.918238
vt 0.732368 0.496517
vt 0.800482 0.751458
vt 0.800482 0.971955
vt 0.732368 0.751458
vt 0.732368 0.971955
vt 0.931886 0.745059
vt 0.931886 0.000000
vt 1.000000 0.745059
vt 1.000000 0.000000
vt 0.399884 0.745059
vt 0.399884 0.965556
vt 0.331770 0.965556
vt 0.863772 0.000000
vt 0.863772 0.745059
vt 0.200299 0.000000
vt 0.400597 0.000000
vt 0.355743 0.124271
vt 0.400597 0.745059
vt 0.200299 0.745059
vt 0.245153 0.620788
vt 0.245153 0.124271
vt 0.245153 0.161669
vt 0.245153 0.583390
vt 0.355743 0.620788
vt 0.355743 0.583390
vt 0.355743 0.161669
vt 0.000000 0.745059
vt 0.000000 0.000000
vt 0.000000 1.000000
vt 0.110590 1.000000
vt 0.863772 0.459119
vt 0.863772 0.496517
vt 0.662042 0.459119
vt 0.632185 0.496517
vt 0.662042 0.037398
vt 0.632185 0.000000
vt 0.863772 0.037398
vt 0.632185 0.459119
vt 0.430455 0.459119
vt 0.400597 0.496517
vt 0.430455 0.037398
vt 0.632185 0.037398
vt 0.511187 0.496517
vt 0.400597 0.993034
vt 0.511187 0.993034
vt 0.842958 0.751458
vt 0.511188 0.918238
vn 1.000000 0.000000 0.000000
vn -1.000000 0.000000 0.000000
vn 0.000000 0.000000 -1.000000
vn 0.000000 0.000000 1.000000
vn 0.000000 1.000000 0.000000
vn 0.000000 -1.000000 0.000000
usemtl Material.001
s off
f 5/1/2 6/2/2 7/3/2
f 7/3/2 6/2/2 8/4/2
f 7/3/2 8/4/2 9/5/2
f 9/5/2 8/4/2 10/6/2
f 11/2/3 12/7/3 13/8/3
f 13/8/3 12/7/3 14/9/3
f 13/8/3 14/9/3 15/6/3
f 15/6/3 14/9/3 16/10/3
f 10/11/4 8/12/4 12/13/4
f 12/13/4 8/12/4 14/14/4
f 7/15/5 9/11/5 13/16/5
f 13/16/5 9/11/5 11/13/5
f 11/17/6 9/18/6 12/19/6
f 12/19/6 9/18/6 10/20/6
f 17/21/2 18/22/2 19/23/2
f 19/23/2 18/22/2 20/24/2
f 21/25/4 17/26/4 22/27/4
f 22/27/4 17/26/4 19/28/4
f 23/29/3 21/30/3 24/5/3
f 24/5/3 21/30/3 22/31/3
f 18/26/5 23/25/5 20/32/5
f 20/32/5 23/25/5 24/33/5
f 18/34/6 17/35/6 25/36/6
f 21/37/6 23/38/6 26/39/6
f 25/36/6 27/40/6 18/34/6
f 18/34/6 27/40/6 14/41/6
f 18/34/6 14/41/6 23/38/6
f 23/38/6 14/41/6 8/42/6
f 23/38/6 8/42/6 26/39/6
f 26/39/6 28/43/6 21/37/6
f 21/37/6 28/43/6 7/44/6
f 21/37/6 7/44/6 17/35/6
f 17/35/6 7/44/6 13/45/6
f 17/35/6 13/45/6 25/36/6
f 24/38/7 22/46/7 20/34/7
f 20/34/7 22/46/7 19/47/7
f 26/48/3 29/46/3 28/49/3
f 28/49/3 29/46/3 30/10/3
f 14/50/5 27/51/5 16/52/5
f 16/52/5 27/51/5 31/53/5
f 16/52/5 31/53/5 6/54/5
f 6/54/5 31/53/5 29/55/5
f 6/54/5 29/55/5 8/56/5
f 8/56/5 29/55/5 26/32/5
f 7/57/4 28/53/4 5/58/4
f 5/58/4 28/53/4 30/59/4
f 5/58/4 30/59/4 15/60/4
f 15/60/4 30/59/4 32/35/4
f 15/60/4 32/35/4 13/61/4
f 13/61/4 32/35/4 25/55/4
f 31/59/6 32/62/6 29/63/6
f 29/63/6 32/62/6 30/64/6
f 25/14/2 32/65/2 27/20/2
f 27/20/2 32/65/2 31/23/2
f 15/62/7 16/18/7 5/66/7
f 5/66/7 16/18/7 6/17/7
o Assem1_-_steel_case_part-1
v -1.545858 1.615416 -0.582043
v 1.724114 1.615416 -0.582043
v -1.545858 1.615416 0.336452
v 1.724114 1.615416 0.336452
v 1.784398 1.675701 -0.582043
v -1.606142 1.675701 -0.582043
v 1.784398 1.675701 0.336452
v -1.606142 1.675701 0.336452
v 1.724114 -0.049427 -0.582042
v 1.784398 -0.169996 -0.582042
v -1.545858 -0.049427 -0.582042
v -1.606142 -0.169996 -0.582042
v -1.545858 -0.049427 0.336452
v -1.606142 -0.169996 0.336452
v 1.724114 -0.049427 0.336452
v 1.784398 -0.169996 0.336452
vt 0.857529 1.000000
vt 0.857529 0.500000
vt 1.000000 1.000000
vt 1.000000 0.500000
vt 0.857529 0.000000
vt 0.857529 0.518436
vt 0.715057 0.000000
vt 0.715057 0.518436
vt 0.267591 0.009218
vt 0.286293 0.000000
vt 0.267591 0.509218
vt 0.286293 0.518436
vt 0.009351 0.509218
vt 0.000000 0.518436
vt 0.009351 0.009218
vt 0.000000 0.000000
vt 0.295644 0.009218
vt 0.553884 0.009218
vt 0.572586 0.000000
vt 0.553884 0.509218
vt 0.572586 0.518436
vt 0.295644 0.509218
vt 0.427414 0.518436
vt 0.427414 0.773001
vt 0.284942 0.518436
vt 0.284943 0.773001
vt 0.569885 0.773001
vt 0.569885 0.518436
vt 0.284942 0.800655
vt 0.142471 0.518436
vt 0.142471 0.800655
vt 1.000000 0.000000
vt 0.000000 0.800655
vn 0.000000 -1.000000 0.000000
vn 0.000000 1.000000 -0.000000
vn 0.000000 0.000000 -1.000000
vn 0.000000 0.000000 1.000000
vn -1.000000 0.000000 0.000000
vn 1.000000 0.000000 0.000000
usemtl Material.003
s off
f 33/67/8 34/68/8 35/69/8
f 35/69/8 34/68/8 36/70/8
f 37/71/9 38/72/9 39/73/9
f 39/73/9 38/72/9 40/74/9
f 41/75/10 42/76/10 43/77/10
f 43/77/10 42/76/10 44/78/10
f 43/77/10 44/78/10 33/79/10
f 33/79/10 44/78/10 38/80/10
f 33/79/10 38/80/10 34/81/10
f 34/81/10 38/80/10 37/82/10
f 34/81/10 37/82/10 41/75/10
f 41/75/10 37/82/10 42/76/10
f 35/83/11 40/76/11 45/84/11
f 45/84/11 40/76/11 46/85/11
f 45/84/11 46/85/11 47/86/11
f 47/86/11 46/85/11 48/87/11
f 47/86/11 48/87/11 36/88/11
f 36/88/11 48/87/11 39/78/11
f 36/88/11 39/78/11 35/83/11
f 35/83/11 39/78/11 40/76/11
f 34/89/12 41/90/12 36/91/12
f 36/91/12 41/90/12 47/92/12
f 35/90/13 45/89/13 33/93/13
f 33/93/13 45/89/13 43/94/13
f 42/91/13 37/95/13 48/96/13
f 48/96/13 37/95/13 39/97/13
f 43/71/9 45/98/9 41/68/9
f 41/68/9 45/98/9 47/70/9
f 38/96/12 44/97/12 40/80/12
f 40/80/12 44/97/12 46/99/12
f 44/87/8 42/85/8 46/74/8
f 46/74/8 42/85/8 48/73/8
o Assem1_-_glass_part-1
v 1.784398 -0.169996 -0.582042
v -1.606142 -0.169996 -0.582042
v 1.784398 -0.169996 -0.642327
v -1.606142 -0.169996 -0.642327
v 1.784398 1.675701 -0.582043
v 1.784398 1.675701 -0.642327
v -1.606142 1.675701 -0.582043
v -1.606142 1.675701 -0.642327
vn 0.000000 -1.000000 0.000000
vn 1.000000 0.000000 0.000000
vn 0.000000 1.000000 0.000000
vn -1.000000 0.000000 0.000000
vn 0.000000 0.000000 1.000000
vn 0.000000 -0.000000 -1.000000
usemtl Material.002
s off
f 49//14 50//14 51//14
f 51//14 50//14 52//14
f 53//15 49//15 54//15
f 54//15 49//15 51//15
f 55//16 53//16 56//16
f 56//16 53//16 54//16
f 50//17 55//17 52//17
f 52//17 55//17 56//17
f 53//18 55//18 49//18
f 49//18 55//18 50//18
f 56//19 54//19 52//19
f 52//19 54//19 51//19
o Circle
v 0.000000 0.000000 -0.390756
v -0.076233 0.000000 -0.383247
v -0.149536 0.000000 -0.361011
v -0.217092 0.000000 -0.324901
v -0.276306 0.000000 -0.276306
v -0.324901 0.000000 -0.217092
v -0.361011 0.000000 -0.149536
v -0.383247 0.000000 -0.076233
v -0.390756 0.000000 -0.000000
v -0.383247 0.000000 0.076233
v -0.361011 0.000000 0.149536
v -0.324901 0.000000 0.217092
v -0.276306 0.000000 0.276306
v -0.217092 0.000000 0.324901
v -0.149536 0.000000 0.361011
v -0.076233 0.000000 0.383247
v 0.000000 0.000000 0.390756
v 0.076233 0.000000 0.383247
v 0.149536 0.000000 0.361011
v 0.217092 0.000000 0.324901
v 0.276306 0.000000 0.276306
v 0.324902 0.000000 0.217092
v 0.361011 0.000000 0.149535
v 0.383247 0.000000 0.076232
v 0.390756 0.000000 -0.000000
v 0.383247 0.000000 -0.076233
v 0.361011 0.000000 -0.149536
v 0.324901 0.000000 -0.217093
v 0.276306 0.000000 -0.276306
v 0.217092 0.000000 -0.324902
v 0.149535 0.000000 -0.361011
v 0.076232 0.000000 -0.383247
vn 0.000000 1.000000 0.000000
usemtl None
s off
f 57//20 58//20 59//20 60//20 61//20 62//20 63//20 64//20 65//20 66//20 67//20 68//20 69//20 70//20 71//20 72//20 73//20 74//20 75//20 76//20 77//20 78//20 79//20 80//20 81//20 82//20 83//20 84//20 85//20 86//20 87//20 88//20
o Smoke_Domain_Cube.001
v -0.843750 1.691588 0.906250
v 0.906250 1.691588 0.906250
v 0.906250 1.691588 -0.812500
v -0.843750 1.691588 -0.812500
v -0.843750 -0.245912 0.906250
v 0.906250 -0.245912 0.906250
v 0.906250 -0.245912 -0.812500
v -0.843750 -0.245912 -0.812500
vn 0.000000 1.000000 0.000000
vn 1.000000 0.000000 0.000000
vn 0.000000 -1.000000 0.000000
vn -1.000000 0.000000 0.000000
vn 0.000000 0.000000 -1.000000
vn 0.000000 0.000000 1.000000
usemtl Smoke_Domain_Material
s off
f 89//21 90//21 91//21 92//21
f 91//22 90//22 94//22 95//22
f 96//23 95//23 94//23 93//23
f 89//24 92//24 96//24 93//24
f 92//25 91//25 95//25 96//25
f 90//26 89//26 93//26 94//26
o Sphere_Sphere.001
v -10.692818 -6.760897 1.970215
v -11.131078 -6.942430 1.970215
v -11.131078 -7.818951 1.970215
v -10.692818 -8.000484 1.970215
v -10.828247 -6.942430 1.553404
v -10.884344 -7.380691 1.380756
v -10.828247 -7.818951 1.553404
v -10.338258 -6.942430 1.712612
v -10.191394 -7.380691 1.605909
v -10.338258 -7.818951 1.712612
v -10.338258 -6.942430 2.227818
v -10.191394 -7.380691 2.334521
v -10.338258 -7.818951 2.227818
v -10.828248 -6.942430 2.387025
v -10.884344 -7.380691 2.559674
v -10.828248 -7.818951 2.387025
v -11.312612 -7.380691 1.970215
vn 0.293000 -0.317700 -0.901800
vn 0.293000 0.317700 -0.901800
vn 0.948200 -0.317700 0.000000
vn 0.948200 0.317700 0.000000
vn 0.293000 -0.317700 0.901800
vn 0.293000 0.317700 0.901800
vn -0.767100 -0.317700 -0.557300
vn -0.368700 0.890100 -0.267900
vn -0.368700 -0.890100 -0.267900
vn -0.767100 0.317700 -0.557300
vn 0.140800 0.890100 -0.433400
vn 0.140800 -0.890100 -0.433400
vn 0.455700 0.890100 0.000000
vn 0.455700 -0.890100 0.000000
vn 0.140800 0.890100 0.433400
vn 0.140800 -0.890100 0.433400
vn -0.767100 -0.317700 0.557300
vn -0.368700 0.890100 0.267900
vn -0.368700 -0.890100 0.267900
vn -0.767100 0.317700 0.557300
usemtl Material
s off
f 103//27 102//27 105//27 106//27
f 102//28 101//28 104//28 105//28
f 106//29 105//29 108//29 109//29
f 105//30 104//30 107//30 108//30
f 109//31 108//31 111//31 112//31
f 108//32 107//32 110//32 111//32
f 99//33 113//33 102//33 103//33
f 98//34 97//34 101//34
f 100//35 99//35 103//35
f 113//36 98//36 101//36 102//36
f 101//37 97//37 104//37
f 100//38 103//38 106//38
f 104//39 97//39 107//39
f 100//40 106//40 109//40
f 107//41 97//41 110//41
f 100//42 109//42 112//42
f 112//43 111//43 113//43 99//43
f 110//44 97//44 98//44
f 100//45 112//45 99//45
f 111//46 110//46 98//46 113//46
